# Maya Export HTR
[Header]
# KeyWord<space>Value<CR>
FileType htr
DataType HTRS
FileVersion 1
NumSegments 7
NumFrames 15
DataFrameRate 24
EulerRotationOrder ZYX
CalibrationUnits cm
RotationUnits Degrees
GlobalAxisofGravity Y
BoneLengthAxis X
ScaleFactor 1.00
[SegmentNames&Hierarchy]
# ObjectName<tab>ParentObjectName<CR>
tail1	GLOBAL
tail2	tail1
tail3	tail2
tail4	tail3
tail5	tail4
tail6	tail5
tail7	tail6
[BasePosition]
# ObjectName<tab>Tx<tab>Ty<tab>Tz<tab>Rx<tab>Ry<tab>Rz<tab>BoneLength<CR>
tail1	0.0	0.0	0.0	0.0	0.0	0.0	1.0
tail2	0.0	0.5534495830174371	0.0	0.0	0.0	-25.0	1.0
tail3	0.0	0.9931766489764977	0.0	0.0	0.0	-25.0	1.0
tail4	0.0	0.9931766489764973	0.0	0.0	0.0	-25.0	1.0
tail5	0.0	0.9855951478392724	0.0	0.0	0.0	-25.0	1.0
tail6	0.0	1.0235026535253975	0.0	0.0	0.0	-25.0	1.0
tail7	0.0	0.7050796057619397	0.0	0.0	0.0	-25.0	1.0
[tail1]
# Tx<tab>Ty<tab>Tz<tab>Rx<tab>Ry<tab>Rz<tab>BoneScaleFactor<CR>
0	0.0	0.0	0.0	0.0	0.0	0.0	0.0
1	0.0	0.0	0.0	0.0	0.0	0.0	0.0
2	0.0	0.0	0.0	0.0	0.0	0.0	0.0
3	0.0	0.0	0.0	0.0	0.0	0.0	0.0
4	0.0	0.0	0.0	0.0	0.0	0.0	0.0
5	0.0	0.0	0.0	0.0	0.0	0.0	0.0
6	0.0	0.0	0.0	0.0	0.0	0.0	0.0
7	0.0	0.0	0.0	0.0	0.0	0.0	0.0
8	0.0	0.0	0.0	0.0	0.0	0.0	0.0
9	0.0	0.0	0.0	0.0	0.0	0.0	0.0
10	0.0	0.0	0.0	0.0	0.0	0.0	0.0
11	0.0	0.0	0.0	0.0	0.0	0.0	0.0
12	0.0	0.0	0.0	0.0	0.0	0.0	0.0
13	0.0	0.0	0.0	0.0	0.0	0.0	0.0
14	0.0	0.0	0.0	0.0	0.0	0.0	0.0
[tail2]
# Tx<tab>Ty<tab>Tz<tab>Rx<tab>Ry<tab>Rz<tab>BoneScaleFactor<CR>
0	0.0	0.0	0.0	0.0	0.0	0.0	0.0
1	0.0	0.0	0.0	0.0	0.0	0.0	0.0
2	0.0	0.0	0.0	0.0	0.0	0.25318287037037024	0.0
3	0.0	0.0	0.0	0.0	0.0	0.9837962962962976	0.0
4	0.0	0.0	0.0	0.0	0.0	2.1484375	0.0
5	0.0	0.0	0.0	0.0	0.0	3.703703703703706	0.0
6	0.0	0.0	0.0	0.0	0.0	5.60619212962963	0.0
7	0.0	0.0	0.0	0.0	0.0	7.8125	0.0
8	0.0	0.0	0.0	0.0	0.0	10.279224537037036	0.0
9	0.0	0.0	0.0	0.0	0.0	12.962962962962962	0.0
10	0.0	0.0	0.0	0.0	0.0	15.820312499999996	0.0
11	0.0	0.0	0.0	0.0	0.0	18.807870370370367	0.0
12	0.0	0.0	0.0	0.0	0.0	21.882233796296298	0.0
13	0.0	0.0	0.0	0.0	0.0	24.999999999999996	0.0
14	0.0	0.0	0.0	0.0	0.0	28.117766203703713	0.0
[tail3]
# Tx<tab>Ty<tab>Tz<tab>Rx<tab>Ry<tab>Rz<tab>BoneScaleFactor<CR>
0	0.0	0.0	0.0	0.0	0.0	0.0	0.0
1	0.0	0.0	0.0	0.0	0.0	0.0	0.0
2	0.0	0.0	0.0	0.0	0.0	0.0	0.0
3	0.0	0.0	0.0	0.0	0.0	0.25318287037037024	0.0
4	0.0	0.0	0.0	0.0	0.0	0.9837962962962976	0.0
5	0.0	0.0	0.0	0.0	0.0	2.1484375	0.0
6	0.0	0.0	0.0	0.0	0.0	3.703703703703706	0.0
7	0.0	0.0	0.0	0.0	0.0	5.606192129629633	0.0
8	0.0	0.0	0.0	0.0	0.0	7.8125	0.0
9	0.0	0.0	0.0	0.0	0.0	10.27922453703704	0.0
10	0.0	0.0	0.0	0.0	0.0	12.962962962962965	0.0
11	0.0	0.0	0.0	0.0	0.0	15.820312500000004	0.0
12	0.0	0.0	0.0	0.0	0.0	18.807870370370377	0.0
13	0.0	0.0	0.0	0.0	0.0	21.882233796296298	0.0
14	0.0	0.0	0.0	0.0	0.0	25.000000000000004	0.0
[tail4]
# Tx<tab>Ty<tab>Tz<tab>Rx<tab>Ry<tab>Rz<tab>BoneScaleFactor<CR>
0	0.0	0.0	0.0	0.0	0.0	0.0	0.0
1	0.0	0.0	0.0	0.0	0.0	0.0	0.0
2	0.0	0.0	0.0	0.0	0.0	0.0	0.0
3	0.0	0.0	0.0	0.0	0.0	0.0	0.0
4	0.0	0.0	0.0	0.0	0.0	0.0	0.0
5	0.0	0.0	0.0	0.0	0.0	0.25318287037037024	0.0
6	0.0	0.0	0.0	0.0	0.0	0.9837962962962976	0.0
7	0.0	0.0	0.0	0.0	0.0	2.1484375	0.0
8	0.0	0.0	0.0	0.0	0.0	3.7037037037037024	0.0
9	0.0	0.0	0.0	0.0	0.0	5.60619212962963	0.0
10	0.0	0.0	0.0	0.0	0.0	7.8125	0.0
11	0.0	0.0	0.0	0.0	0.0	10.279224537037036	0.0
12	0.0	0.0	0.0	0.0	0.0	12.962962962962965	0.0
13	0.0	0.0	0.0	0.0	0.0	15.820312499999996	0.0
14	0.0	0.0	0.0	0.0	0.0	18.807870370370377	0.0
[tail5]
# Tx<tab>Ty<tab>Tz<tab>Rx<tab>Ry<tab>Rz<tab>BoneScaleFactor<CR>
0	0.0	0.0	0.0	0.0	0.0	0.0	0.0
1	0.0	0.0	0.0	0.0	0.0	0.0	0.0
2	0.0	0.0	0.0	0.0	0.0	0.0	0.0
3	0.0	0.0	0.0	0.0	0.0	0.0	0.0
4	0.0	0.0	0.0	0.0	0.0	0.0	0.0
5	0.0	0.0	0.0	0.0	0.0	0.0	0.0
6	0.0	0.0	0.0	0.0	0.0	0.0	0.0
7	0.0	0.0	0.0	0.0	0.0	0.0	0.0
8	0.0	0.0	0.0	0.0	0.0	0.2531828703703667	0.0
9	0.0	0.0	0.0	0.0	0.0	0.9837962962962941	0.0
10	0.0	0.0	0.0	0.0	0.0	2.1484375	0.0
11	0.0	0.0	0.0	0.0	0.0	3.7037037037037024	0.0
12	0.0	0.0	0.0	0.0	0.0	5.60619212962963	0.0
13	0.0	0.0	0.0	0.0	0.0	7.8124999999999964	0.0
14	0.0	0.0	0.0	0.0	0.0	10.279224537037036	0.0
[tail6]
# Tx<tab>Ty<tab>Tz<tab>Rx<tab>Ry<tab>Rz<tab>BoneScaleFactor<CR>
0	0.0	0.0	0.0	0.0	0.0	0.0	0.0
1	0.0	0.0	0.0	0.0	0.0	0.0	0.0
2	0.0	0.0	0.0	0.0	0.0	0.0	0.0
3	0.0	0.0	0.0	0.0	0.0	0.0	0.0
4	0.0	0.0	0.0	0.0	0.0	0.0	0.0
5	0.0	0.0	0.0	0.0	0.0	0.0	0.0
6	0.0	0.0	0.0	0.0	0.0	0.0	0.0
7	0.0	0.0	0.0	0.0	0.0	0.0	0.0
8	0.0	0.0	0.0	0.0	0.0	0.0	0.0
9	0.0	0.0	0.0	0.0	0.0	0.0	0.0
10	0.0	0.0	0.0	0.0	0.0	0.0	0.0
11	0.0	0.0	0.0	0.0	0.0	0.0	0.0
12	0.0	0.0	0.0	0.0	0.0	0.25318287037037024	0.0
13	0.0	0.0	0.0	0.0	0.0	0.9837962962962941	0.0
14	0.0	0.0	0.0	0.0	0.0	2.1484375	0.0
[tail7]
# Tx<tab>Ty<tab>Tz<tab>Rx<tab>Ry<tab>Rz<tab>BoneScaleFactor<CR>
0	0.0	0.0	0.0	0.0	0.0	0.0	0.0
1	0.0	0.0	0.0	0.0	0.0	0.0	0.0
2	0.0	0.0	0.0	0.0	0.0	0.0	0.0
3	0.0	0.0	0.0	0.0	0.0	0.0	0.0
4	0.0	0.0	0.0	0.0	0.0	0.0	0.0
5	0.0	0.0	0.0	0.0	0.0	0.0	0.0
6	0.0	0.0	0.0	0.0	0.0	0.0	0.0
7	0.0	0.0	0.0	0.0	0.0	0.0	0.0
8	0.0	0.0	0.0	0.0	0.0	0.0	0.0
9	0.0	0.0	0.0	0.0	0.0	0.0	0.0
10	0.0	0.0	0.0	0.0	0.0	0.0	0.0
11	0.0	0.0	0.0	0.0	0.0	0.0	0.0
12	0.0	0.0	0.0	0.0	0.0	0.0	0.0
13	0.0	0.0	0.0	0.0	0.0	0.0	0.0
14	0.0	0.0	0.0	0.0	0.0	0.0	0.0
[EndOfFile]
